<?xml version="1.0" standalone="no"?>
<!DOCTYPE svg PUBLIC "-//W3C//DTD SVG 20010904//EN"
 "http://www.w3.org/TR/2001/REC-SVG-20010904/DTD/svg10.dtd">
<svg version="1.0" xmlns="http://www.w3.org/2000/svg"
 width="700.000000pt" height="700.000000pt" viewBox="0 0 700.000000 700.000000"
 preserveAspectRatio="xMidYMid meet">
<metadata>
Created by potrace 1.11, written by Peter Selinger 2001-2013
</metadata>
<g transform="translate(0.000000,700.000000) scale(0.100000,-0.100000)"
fill="#000000" stroke="none">
<path d="M3471 6643 c-17 -14 -110 -292 -396 -1186 -206 -643 -375 -1171 -375
-1174 0 -3 -555 -4 -1232 -1 -678 3 -1240 3 -1248 1 -26 -6 -41 -39 -31 -66 7
-17 337 -260 993 -732 541 -389 991 -715 1000 -724 16 -15 -7 -89 -367 -1181
-212 -641 -384 -1176 -383 -1190 2 -16 13 -30 31 -38 24 -12 32 -11 55 4 15
10 465 339 1001 731 582 427 980 712 988 708 8 -3 452 -325 986 -717 535 -391
984 -718 999 -725 33 -17 65 -4 74 31 4 16 -120 403 -380 1192 -361 1095 -384
1170 -368 1185 9 9 459 334 1000 723 540 389 987 716 992 726 12 23 -5 67 -29
73 -9 2 -571 2 -1248 -1 -678 -3 -1233 -2 -1233 1 0 3 -169 531 -375 1174
-370 1154 -387 1203 -425 1203 -4 0 -17 -8 -29 -17z m-386 -3345 c119 -205
224 -378 232 -385 11 -9 21 -9 34 -2 18 9 19 29 19 384 l0 375 80 0 80 0 0
-530 0 -531 -87 3 -87 3 -216 372 c-119 204 -222 379 -230 388 -7 9 -23 15
-34 13 -21 -3 -21 -7 -26 -388 l-5 -385 -77 -3 -78 -3 0 531 0 530 89 0 89 0
217 -372z m1125 -153 l0 -525 -80 0 -80 0 0 239 c0 204 -2 242 -16 255 -13 14
-48 16 -225 16 l-209 0 0 60 0 60 209 0 c177 0 212 2 225 16 13 13 16 46 16
210 l0 194 80 0 80 0 0 -525z"/>
</g>
</svg>
