<?xml version="1.0" standalone="no"?>
<!DOCTYPE svg PUBLIC "-//W3C//DTD SVG 20010904//EN"
 "http://www.w3.org/TR/2001/REC-SVG-20010904/DTD/svg10.dtd">
<svg version="1.0" xmlns="http://www.w3.org/2000/svg"
 width="700.000000pt" height="700.000000pt" viewBox="0 0 700.000000 700.000000"
 preserveAspectRatio="xMidYMid meet">
<metadata>
Created by potrace 1.11, written by Peter Selinger 2001-2013
</metadata>
<g transform="translate(0.000000,700.000000) scale(0.100000,-0.100000)"
fill="#000000" stroke="none">
<path d="M0 3500 l0 -3500 3500 0 3500 0 0 3500 0 3500 -3500 0 -3500 0 0
-3500z m3829 1708 c178 -557 331 -1025 339 -1039 8 -14 29 -34 48 -44 31 -17
87 -17 1116 -10 596 4 1081 5 1078 2 -3 -2 -395 -286 -873 -630 -477 -344
-877 -637 -889 -652 -13 -16 -21 -41 -20 -63 0 -30 226 -728 642 -1985 29 -87
29 -88 7 -74 -12 8 -395 288 -852 622 -456 335 -843 617 -860 627 -41 25 -100
23 -138 -4 -18 -12 -403 -294 -857 -627 -454 -332 -835 -610 -847 -618 -22
-14 -22 -13 7 74 382 1153 640 1952 640 1978 0 19 -4 45 -9 58 -6 16 -281 220
-813 603 -441 318 -839 605 -883 637 l-80 59 1097 -4 1098 -3 29 30 c27 26 70
153 358 1053 180 562 330 1022 333 1022 3 0 151 -456 329 -1012z"/>
</g>
</svg>
